# xmcd
#
# Track frame offsets: 
#        182
#        18950
#        43857
#
# Disc length: 931 seconds
#
# Revision: 0
# Processed by: cddbd v1.5.2PL0 Copyright (c) Steve Scherf et al.
# Submitted via: ExactAudioCopy v1.3
#
DISCID=1c03a103
DTITLE=Entouch - Drop Dead Gorgeous (Promo CDM)
DYEAR=1991
DGENRE=Funk
TTITLE0=Drop Dead Gorgeous (Video Version)
TTITLE1=Drop Dead Gorgeous (Radio Version) 
TTITLE2=Drop Dead Gorgeous (Extended Version)
EXTD=
EXTT0=
EXTT1=
EXTT2=
PLAYORDER=
